<?xml version="1.0" encoding="utf-8"?>
<!-- Generator: Adobe Illustrator 17.1.0, SVG Export Plug-In . SVG Version: 6.00 Build 0)  -->
<!DOCTYPE svg PUBLIC "-//W3C//DTD SVG 1.1//EN" "http://www.w3.org/Graphics/SVG/1.1/DTD/svg11.dtd">
<svg version="1.1" id="レイヤー_1" xmlns="http://www.w3.org/2000/svg" xmlns:xlink="http://www.w3.org/1999/xlink" x="0px"
	 y="0px" viewBox="0 0 140 162" enable-background="new 0 0 140 162" xml:space="preserve">
<path d="M77.1618,152.4599c2.4614,5.7693,19.5374,11.6274,29.7242,7.281c17.2435-7.3572,25.6549-16.3434,32.7199-33.9238
	c-0.2034-0.0817-0.3971-0.1503-0.5991-0.2301l-61.9939,26.4507C77.059,152.182,77.1049,152.3266,77.1618,152.4599z"/>
<g>
	<defs>
		<path id="SVGID_21_" d="M77.1618,152.4599c-2.4615-5.7693,5.1256-22.1502,15.3125-26.4966
			c17.2435-7.3572,29.5512-7.2111,47.1316-0.1461c-7.065,17.5804-15.4764,26.5666-32.7199,33.9237
			C96.6991,164.0873,79.6233,158.2292,77.1618,152.4599z"/>
	</defs>
	<clipPath id="SVGID_2_">
		<use xlink:href="#SVGID_21_"  overflow="visible"/>
	</clipPath>
	<g clip-path="url(#SVGID_2_)">
		<g>
			<g>
				<circle cx="136.554" cy="117.5306" r="1.2414"/>
				<circle cx="131.5885" cy="117.5306" r="1.2414"/>
				<circle cx="126.623" cy="117.5306" r="1.2414"/>
				<circle cx="121.6574" cy="117.5306" r="1.2414"/>
				<circle cx="116.692" cy="117.5306" r="1.2414"/>
				<circle cx="111.7264" cy="117.5306" r="1.2414"/>
				<circle cx="106.7609" cy="117.5306" r="1.2414"/>
				<circle cx="101.7954" cy="117.5306" r="1.2414"/>
				<circle cx="96.8299" cy="117.5306" r="1.2414"/>
				<circle cx="91.8643" cy="117.5306" r="1.2414"/>
				<circle cx="86.8989" cy="117.5306" r="1.2414"/>
				<circle cx="81.9333" cy="117.5306" r="1.2414"/>
				<circle cx="76.9678" cy="117.5306" r="1.2414"/>
				<circle cx="72.0023" cy="117.5306" r="1.2414"/>
				<circle cx="67.0368" cy="117.5306" r="1.2414"/>
				<circle cx="62.0712" cy="117.5306" r="1.2414"/>
				<circle cx="57.1058" cy="117.5306" r="1.2414"/>
				<circle cx="52.1402" cy="117.5306" r="1.2414"/>
				<circle cx="47.1746" cy="117.5306" r="1.2414"/>
			</g>
			<g>
				<circle cx="139.0368" cy="121.2547" r="1.2414"/>
				<circle cx="134.0712" cy="121.2547" r="1.2414"/>
				<circle cx="129.1058" cy="121.2547" r="1.2414"/>
				<circle cx="124.1402" cy="121.2547" r="1.2414"/>
				<circle cx="119.1746" cy="121.2547" r="1.2414"/>
				<circle cx="114.2092" cy="121.2547" r="1.2414"/>
				<circle cx="109.2436" cy="121.2547" r="1.2414"/>
				<circle cx="104.2781" cy="121.2547" r="1.2414"/>
				<circle cx="99.3126" cy="121.2547" r="1.2414"/>
				<circle cx="94.3471" cy="121.2547" r="1.2414"/>
				<circle cx="89.3815" cy="121.2547" r="1.2414"/>
				<circle cx="84.4161" cy="121.2547" r="1.2414"/>
				<circle cx="79.4505" cy="121.2547" r="1.2414"/>
				<circle cx="74.4851" cy="121.2547" r="1.2414"/>
				<circle cx="69.5195" cy="121.2547" r="1.2414"/>
				<circle cx="64.554" cy="121.2547" r="1.2414"/>
				<circle cx="59.5885" cy="121.2547" r="1.2414"/>
				<circle cx="54.623" cy="121.2547" r="1.2414"/>
				<circle cx="49.6574" cy="121.2547" r="1.2414"/>
				<circle cx="44.692" cy="121.2547" r="1.2414"/>
			</g>
		</g>
		<g>
			<g>
				<circle cx="136.554" cy="124.9789" r="1.2414"/>
				<circle cx="131.5885" cy="124.9789" r="1.2414"/>
				<circle cx="126.623" cy="124.9789" r="1.2414"/>
				<circle cx="121.6574" cy="124.9789" r="1.2414"/>
				<circle cx="116.692" cy="124.9789" r="1.2414"/>
				<circle cx="111.7264" cy="124.9789" r="1.2414"/>
				<circle cx="106.7609" cy="124.9789" r="1.2414"/>
				<circle cx="101.7954" cy="124.9789" r="1.2414"/>
				<circle cx="96.8299" cy="124.9789" r="1.2414"/>
				<circle cx="91.8643" cy="124.9789" r="1.2414"/>
				<circle cx="86.8989" cy="124.9789" r="1.2414"/>
				<circle cx="81.9333" cy="124.9789" r="1.2414"/>
				<circle cx="76.9678" cy="124.9789" r="1.2414"/>
				<circle cx="72.0023" cy="124.9789" r="1.2414"/>
				<circle cx="67.0368" cy="124.9789" r="1.2414"/>
				<circle cx="62.0712" cy="124.9789" r="1.2414"/>
				<circle cx="57.1058" cy="124.9789" r="1.2414"/>
				<circle cx="52.1402" cy="124.9789" r="1.2414"/>
				<circle cx="47.1746" cy="124.9789" r="1.2414"/>
			</g>
			<g>
				<circle cx="139.0368" cy="128.703" r="1.2414"/>
				<circle cx="134.0712" cy="128.703" r="1.2414"/>
				<circle cx="129.1058" cy="128.703" r="1.2414"/>
				<circle cx="124.1402" cy="128.703" r="1.2414"/>
				<circle cx="119.1746" cy="128.703" r="1.2414"/>
				<circle cx="114.2092" cy="128.703" r="1.2414"/>
				<circle cx="109.2436" cy="128.703" r="1.2414"/>
				<circle cx="104.2781" cy="128.703" r="1.2414"/>
				<circle cx="99.3126" cy="128.703" r="1.2414"/>
				<circle cx="94.3471" cy="128.703" r="1.2414"/>
				<circle cx="89.3815" cy="128.703" r="1.2414"/>
				<circle cx="84.4161" cy="128.703" r="1.2414"/>
				<circle cx="79.4505" cy="128.703" r="1.2414"/>
				<circle cx="74.4851" cy="128.703" r="1.2414"/>
				<circle cx="69.5195" cy="128.703" r="1.2414"/>
				<circle cx="64.554" cy="128.703" r="1.2414"/>
				<circle cx="59.5885" cy="128.703" r="1.2414"/>
				<circle cx="54.623" cy="128.703" r="1.2414"/>
				<circle cx="49.6574" cy="128.703" r="1.2414"/>
				<circle cx="44.692" cy="128.703" r="1.2414"/>
			</g>
		</g>
		<g>
			<g>
				<circle cx="136.554" cy="132.4271" r="1.2414"/>
				<circle cx="131.5885" cy="132.4271" r="1.2414"/>
				<circle cx="126.623" cy="132.4271" r="1.2414"/>
				<circle cx="121.6574" cy="132.4271" r="1.2414"/>
				<circle cx="116.692" cy="132.4271" r="1.2414"/>
				<circle cx="111.7264" cy="132.4271" r="1.2414"/>
				<circle cx="106.7609" cy="132.4271" r="1.2414"/>
				<circle cx="101.7954" cy="132.4271" r="1.2414"/>
				<circle cx="96.8299" cy="132.4271" r="1.2414"/>
				<circle cx="91.8643" cy="132.4271" r="1.2414"/>
				<circle cx="86.8989" cy="132.4271" r="1.2414"/>
				<circle cx="81.9333" cy="132.4271" r="1.2414"/>
				<circle cx="76.9678" cy="132.4271" r="1.2414"/>
				<circle cx="72.0023" cy="132.4271" r="1.2414"/>
				<circle cx="67.0368" cy="132.4271" r="1.2414"/>
				<circle cx="62.0712" cy="132.4271" r="1.2414"/>
				<circle cx="57.1058" cy="132.4271" r="1.2414"/>
				<circle cx="52.1402" cy="132.4271" r="1.2414"/>
				<circle cx="47.1746" cy="132.4271" r="1.2414"/>
			</g>
			<g>
				<circle cx="139.0368" cy="136.1513" r="1.2414"/>
				<circle cx="134.0712" cy="136.1513" r="1.2414"/>
				<circle cx="129.1058" cy="136.1513" r="1.2414"/>
				<circle cx="124.1402" cy="136.1513" r="1.2414"/>
				<circle cx="119.1746" cy="136.1513" r="1.2414"/>
				<circle cx="114.2092" cy="136.1513" r="1.2414"/>
				<circle cx="109.2436" cy="136.1513" r="1.2414"/>
				<circle cx="104.2781" cy="136.1513" r="1.2414"/>
				<circle cx="99.3126" cy="136.1513" r="1.2414"/>
				<circle cx="94.3471" cy="136.1513" r="1.2414"/>
				<circle cx="89.3815" cy="136.1513" r="1.2414"/>
				<circle cx="84.4161" cy="136.1513" r="1.2414"/>
				<circle cx="79.4505" cy="136.1513" r="1.2414"/>
				<circle cx="74.4851" cy="136.1513" r="1.2414"/>
				<circle cx="69.5195" cy="136.1513" r="1.2414"/>
				<circle cx="64.554" cy="136.1513" r="1.2414"/>
				<circle cx="59.5885" cy="136.1513" r="1.2414"/>
				<circle cx="54.623" cy="136.1513" r="1.2414"/>
				<circle cx="49.6574" cy="136.1513" r="1.2414"/>
				<circle cx="44.692" cy="136.1513" r="1.2414"/>
			</g>
		</g>
		<g>
			<g>
				<circle cx="136.554" cy="139.8754" r="1.2414"/>
				<circle cx="131.5885" cy="139.8754" r="1.2414"/>
				<circle cx="126.623" cy="139.8754" r="1.2414"/>
				<circle cx="121.6574" cy="139.8754" r="1.2414"/>
				<circle cx="116.692" cy="139.8754" r="1.2414"/>
				<circle cx="111.7264" cy="139.8754" r="1.2414"/>
				<circle cx="106.7609" cy="139.8754" r="1.2414"/>
				<circle cx="101.7954" cy="139.8754" r="1.2414"/>
				<circle cx="96.8299" cy="139.8754" r="1.2414"/>
				<circle cx="91.8643" cy="139.8754" r="1.2414"/>
				<circle cx="86.8989" cy="139.8754" r="1.2414"/>
				<circle cx="81.9333" cy="139.8754" r="1.2414"/>
				<circle cx="76.9678" cy="139.8754" r="1.2414"/>
				<circle cx="72.0023" cy="139.8754" r="1.2414"/>
				<circle cx="67.0368" cy="139.8754" r="1.2414"/>
				<circle cx="62.0712" cy="139.8754" r="1.2414"/>
				<circle cx="57.1058" cy="139.8754" r="1.2414"/>
				<circle cx="52.1402" cy="139.8754" r="1.2414"/>
				<circle cx="47.1746" cy="139.8754" r="1.2414"/>
			</g>
			<g>
				<circle cx="139.0368" cy="143.5995" r="1.2414"/>
				<circle cx="134.0712" cy="143.5995" r="1.2414"/>
				<circle cx="129.1058" cy="143.5995" r="1.2414"/>
				<circle cx="124.1402" cy="143.5995" r="1.2414"/>
				<circle cx="119.1746" cy="143.5995" r="1.2414"/>
				<circle cx="114.2092" cy="143.5995" r="1.2414"/>
				<circle cx="109.2436" cy="143.5995" r="1.2414"/>
				<circle cx="104.2781" cy="143.5995" r="1.2414"/>
				<circle cx="99.3126" cy="143.5995" r="1.2414"/>
				<circle cx="94.3471" cy="143.5995" r="1.2414"/>
				<circle cx="89.3815" cy="143.5995" r="1.2414"/>
				<circle cx="84.4161" cy="143.5995" r="1.2414"/>
				<circle cx="79.4505" cy="143.5995" r="1.2414"/>
				<circle cx="74.4851" cy="143.5995" r="1.2414"/>
				<circle cx="69.5195" cy="143.5995" r="1.2414"/>
				<circle cx="64.554" cy="143.5995" r="1.2414"/>
				<circle cx="59.5885" cy="143.5995" r="1.2414"/>
				<circle cx="54.623" cy="143.5995" r="1.2414"/>
				<circle cx="49.6574" cy="143.5995" r="1.2414"/>
				<circle cx="44.692" cy="143.5995" r="1.2414"/>
			</g>
		</g>
		<g>
			<g>
				<circle cx="136.554" cy="147.3237" r="1.2414"/>
				<circle cx="131.5885" cy="147.3237" r="1.2414"/>
				<circle cx="126.623" cy="147.3237" r="1.2414"/>
				<circle cx="121.6574" cy="147.3237" r="1.2414"/>
				<circle cx="116.692" cy="147.3237" r="1.2414"/>
				<circle cx="111.7264" cy="147.3237" r="1.2414"/>
				<circle cx="106.7609" cy="147.3237" r="1.2414"/>
				<circle cx="101.7954" cy="147.3237" r="1.2414"/>
				<circle cx="96.8299" cy="147.3237" r="1.2414"/>
				<circle cx="91.8643" cy="147.3237" r="1.2414"/>
				<circle cx="86.8989" cy="147.3237" r="1.2414"/>
				<circle cx="81.9333" cy="147.3237" r="1.2414"/>
				<circle cx="76.9678" cy="147.3237" r="1.2414"/>
				<circle cx="72.0023" cy="147.3237" r="1.2414"/>
				<circle cx="67.0368" cy="147.3237" r="1.2414"/>
				<circle cx="62.0712" cy="147.3237" r="1.2414"/>
				<circle cx="57.1058" cy="147.3237" r="1.2414"/>
				<circle cx="52.1402" cy="147.3237" r="1.2414"/>
				<circle cx="47.1746" cy="147.3237" r="1.2414"/>
			</g>
			<g>
				<circle cx="139.0368" cy="151.0478" r="1.2414"/>
				<circle cx="134.0712" cy="151.0478" r="1.2414"/>
				<circle cx="129.1058" cy="151.0478" r="1.2414"/>
				<circle cx="124.1402" cy="151.0478" r="1.2414"/>
				<circle cx="119.1746" cy="151.0478" r="1.2414"/>
				<circle cx="114.2092" cy="151.0478" r="1.2414"/>
				<circle cx="109.2436" cy="151.0478" r="1.2414"/>
				<circle cx="104.2781" cy="151.0478" r="1.2414"/>
				<circle cx="99.3126" cy="151.0478" r="1.2414"/>
				<circle cx="94.3471" cy="151.0478" r="1.2414"/>
				<circle cx="89.3815" cy="151.0478" r="1.2414"/>
				<circle cx="84.4161" cy="151.0478" r="1.2414"/>
				<circle cx="79.4505" cy="151.0478" r="1.2414"/>
				<circle cx="74.4851" cy="151.0478" r="1.2414"/>
				<circle cx="69.5195" cy="151.0478" r="1.2414"/>
				<circle cx="64.554" cy="151.0478" r="1.2414"/>
				<circle cx="59.5885" cy="151.0478" r="1.2414"/>
				<circle cx="54.623" cy="151.0478" r="1.2414"/>
				<circle cx="49.6574" cy="151.0478" r="1.2414"/>
				<circle cx="44.692" cy="151.0478" r="1.2414"/>
			</g>
		</g>
	</g>
</g>
<g>
	<g>
		<defs>
			<path id="SVGID_23_" d="M40.1039,102.6325c2.5926-3.6688-0.2523-16.2816-6.7304-20.8595
				c-10.9655-7.749-19.6054-9.5007-32.9793-7.202c2.2987,13.3739,6.8346,20.9331,17.8002,28.6821
				C24.6724,107.831,37.5112,106.3014,40.1039,102.6325z"/>
		</defs>
		<clipPath id="SVGID_4_">
			<use xlink:href="#SVGID_23_"  overflow="visible"/>
		</clipPath>
		<g clip-path="url(#SVGID_4_)">
			<g>
				<g>
					<circle cx="82.5795" cy="81.4534" r="1.2414"/>
					<circle cx="77.7252" cy="80.409" r="1.2414"/>
					<circle cx="72.8707" cy="79.3646" r="1.2414"/>
					<circle cx="68.0162" cy="78.3203" r="1.2414"/>
					<circle cx="63.1618" cy="77.2759" r="1.2414"/>
					<circle cx="58.3073" cy="76.2316" r="1.2414"/>
					<circle cx="53.4528" cy="75.1872" r="1.2414"/>
					<circle cx="48.5985" cy="74.1428" r="1.2414"/>
					<circle cx="43.744" cy="73.0985" r="1.2414"/>
					<circle cx="38.8896" cy="72.0541" r="1.2414"/>
					<circle cx="34.0351" cy="71.0098" r="1.2414"/>
					<circle cx="29.1806" cy="69.9654" r="1.2414"/>
					<circle cx="24.3262" cy="68.921" r="1.2414"/>
					<circle cx="19.4718" cy="67.8767" r="1.2414"/>
					<circle cx="14.6173" cy="66.8323" r="1.2414"/>
					<circle cx="9.7629" cy="65.788" r="1.2414"/>
					<circle cx="4.9084" cy="64.7436" r="1.2414"/>
					<circle cx="0.0539" cy="63.6992" r="1.2414"/>
				</g>
				<g>
					<circle cx="79.3691" cy="84.572" r="1.2414"/>
					<circle cx="74.5146" cy="83.5277" r="1.2414"/>
					<circle cx="69.6602" cy="82.4833" r="1.2414"/>
					<circle cx="64.8057" cy="81.4389" r="1.2414"/>
					<circle cx="59.9512" cy="80.3946" r="1.2414"/>
					<circle cx="55.0969" cy="79.3502" r="1.2414"/>
					<circle cx="50.2424" cy="78.3059" r="1.2414"/>
					<circle cx="45.3879" cy="77.2615" r="1.2414"/>
					<circle cx="40.5335" cy="76.2171" r="1.2414"/>
					<circle cx="35.679" cy="75.1728" r="1.2414"/>
					<circle cx="30.8247" cy="74.1284" r="1.2414"/>
					<circle cx="25.9702" cy="73.0841" r="1.2414"/>
					<circle cx="21.1157" cy="72.0397" r="1.2414"/>
					<circle cx="16.2613" cy="70.9953" r="1.2414"/>
					<circle cx="11.4068" cy="69.951" r="1.2414"/>
					<circle cx="6.5523" cy="68.9066" r="1.2414"/>
					<circle cx="1.6979" cy="67.8623" r="1.2414"/>
				</g>
			</g>
			<g>
				<g>
					<circle cx="81.013" cy="88.735" r="1.2414"/>
					<circle cx="76.1586" cy="87.6907" r="1.2414"/>
					<circle cx="71.3041" cy="86.6463" r="1.2414"/>
					<circle cx="66.4497" cy="85.602" r="1.2414"/>
					<circle cx="61.5953" cy="84.5576" r="1.2414"/>
					<circle cx="56.7408" cy="83.5132" r="1.2414"/>
					<circle cx="51.8863" cy="82.4689" r="1.2414"/>
					<circle cx="47.0319" cy="81.4245" r="1.2414"/>
					<circle cx="42.1774" cy="80.3801" r="1.2414"/>
					<circle cx="37.3229" cy="79.3358" r="1.2414"/>
					<circle cx="32.4686" cy="78.2914" r="1.2414"/>
					<circle cx="27.6141" cy="77.2471" r="1.2414"/>
					<circle cx="22.7596" cy="76.2027" r="1.2414"/>
					<circle cx="17.9052" cy="75.1583" r="1.2414"/>
					<circle cx="13.0507" cy="74.114" r="1.2414"/>
					<circle cx="8.1964" cy="73.0696" r="1.2414"/>
					<circle cx="3.3419" cy="72.0253" r="1.2414"/>
				</g>
				<g>
					<circle cx="77.8026" cy="91.8537" r="1.2414"/>
					<circle cx="72.9481" cy="90.8093" r="1.2414"/>
					<circle cx="68.0937" cy="89.765" r="1.2414"/>
					<circle cx="63.2392" cy="88.7206" r="1.2414"/>
					<circle cx="58.3847" cy="87.6763" r="1.2414"/>
					<circle cx="53.5303" cy="86.6319" r="1.2414"/>
					<circle cx="48.6759" cy="85.5875" r="1.2414"/>
					<circle cx="43.8214" cy="84.5432" r="1.2414"/>
					<circle cx="38.967" cy="83.4988" r="1.2414"/>
					<circle cx="34.1125" cy="82.4544" r="1.2414"/>
					<circle cx="29.258" cy="81.4101" r="1.2414"/>
					<circle cx="24.4036" cy="80.3657" r="1.2414"/>
					<circle cx="19.5491" cy="79.3214" r="1.2414"/>
					<circle cx="14.6947" cy="78.277" r="1.2414"/>
					<circle cx="9.8403" cy="77.2326" r="1.2414"/>
					<circle cx="4.9858" cy="76.1883" r="1.2414"/>
					<circle cx="0.1314" cy="75.1439" r="1.2414"/>
				</g>
			</g>
			<g>
				<g>
					<circle cx="79.4465" cy="96.0167" r="1.2414"/>
					<circle cx="74.592" cy="94.9724" r="1.2414"/>
					<circle cx="69.7376" cy="93.928" r="1.2414"/>
					<circle cx="64.8831" cy="92.8836" r="1.2414"/>
					<circle cx="60.0288" cy="91.8393" r="1.2414"/>
					<circle cx="55.1743" cy="90.7949" r="1.2414"/>
					<circle cx="50.3198" cy="89.7505" r="1.2414"/>
					<circle cx="45.4654" cy="88.7062" r="1.2414"/>
					<circle cx="40.6109" cy="87.6618" r="1.2414"/>
					<circle cx="35.7564" cy="86.6175" r="1.2414"/>
					<circle cx="30.9021" cy="85.5731" r="1.2414"/>
					<circle cx="26.0476" cy="84.5287" r="1.2414"/>
					<circle cx="21.1931" cy="83.4844" r="1.2414"/>
					<circle cx="16.3387" cy="82.44" r="1.2414"/>
					<circle cx="11.4842" cy="81.3957" r="1.2414"/>
					<circle cx="6.6297" cy="80.3513" r="1.2414"/>
					<circle cx="1.7753" cy="79.3069" r="1.2414"/>
				</g>
				<g>
					<circle cx="76.236" cy="99.1354" r="1.2414"/>
					<circle cx="71.3815" cy="98.091" r="1.2414"/>
					<circle cx="66.527" cy="97.0466" r="1.2414"/>
					<circle cx="61.6727" cy="96.0023" r="1.2414"/>
					<circle cx="56.8182" cy="94.9579" r="1.2414"/>
					<circle cx="51.9638" cy="93.9136" r="1.2414"/>
					<circle cx="47.1093" cy="92.8692" r="1.2414"/>
					<circle cx="42.2548" cy="91.8248" r="1.2414"/>
					<circle cx="37.4005" cy="90.7805" r="1.2414"/>
					<circle cx="32.546" cy="89.7361" r="1.2414"/>
					<circle cx="27.6915" cy="88.6918" r="1.2414"/>
					<circle cx="22.8371" cy="87.6474" r="1.2414"/>
					<circle cx="17.9826" cy="86.603" r="1.2414"/>
					<circle cx="13.1281" cy="85.5587" r="1.2414"/>
					<circle cx="8.2738" cy="84.5143" r="1.2414"/>
					<circle cx="3.4193" cy="83.47" r="1.2414"/>
				</g>
			</g>
			<g>
				<g>
					<circle cx="77.88" cy="103.2984" r="1.2414"/>
					<circle cx="73.0255" cy="102.254" r="1.2414"/>
					<circle cx="68.1711" cy="101.2097" r="1.2414"/>
					<circle cx="63.3166" cy="100.1653" r="1.2414"/>
					<circle cx="58.4621" cy="99.1209" r="1.2414"/>
					<circle cx="53.6077" cy="98.0766" r="1.2414"/>
					<circle cx="48.7532" cy="97.0322" r="1.2414"/>
					<circle cx="43.8988" cy="95.9879" r="1.2414"/>
					<circle cx="39.0444" cy="94.9435" r="1.2414"/>
					<circle cx="34.1899" cy="93.8991" r="1.2414"/>
					<circle cx="29.3355" cy="92.8548" r="1.2414"/>
					<circle cx="24.481" cy="91.8104" r="1.2414"/>
					<circle cx="19.6265" cy="90.7661" r="1.2414"/>
					<circle cx="14.7722" cy="89.7217" r="1.2414"/>
					<circle cx="9.9177" cy="88.6773" r="1.2414"/>
					<circle cx="5.0632" cy="87.633" r="1.2414"/>
					<circle cx="0.2088" cy="86.5886" r="1.2414"/>
				</g>
				<g>
					<circle cx="74.6695" cy="106.417" r="1.2414"/>
					<circle cx="69.815" cy="105.3727" r="1.2414"/>
					<circle cx="64.9605" cy="104.3283" r="1.2414"/>
					<circle cx="60.1062" cy="103.284" r="1.2414"/>
					<circle cx="55.2517" cy="102.2396" r="1.2414"/>
					<circle cx="50.3972" cy="101.1952" r="1.2414"/>
					<circle cx="45.5428" cy="100.1509" r="1.2414"/>
					<circle cx="40.6883" cy="99.1065" r="1.2414"/>
					<circle cx="35.8338" cy="98.0622" r="1.2414"/>
					<circle cx="30.9794" cy="97.0178" r="1.2414"/>
					<circle cx="26.125" cy="95.9734" r="1.2414"/>
					<circle cx="21.2706" cy="94.9291" r="1.2414"/>
					<circle cx="16.4161" cy="93.8847" r="1.2414"/>
					<circle cx="11.5616" cy="92.8404" r="1.2414"/>
					<circle cx="6.7072" cy="91.796" r="1.2414"/>
					<circle cx="1.8527" cy="90.7516" r="1.2414"/>
				</g>
			</g>
			<g>
				<g>
					<circle cx="76.3134" cy="110.5801" r="1.2414"/>
					<circle cx="71.4589" cy="109.5357" r="1.2414"/>
					<circle cx="66.6046" cy="108.4913" r="1.2414"/>
					<circle cx="61.7501" cy="107.447" r="1.2414"/>
					<circle cx="56.8956" cy="106.4026" r="1.2414"/>
					<circle cx="52.0412" cy="105.3583" r="1.2414"/>
					<circle cx="47.1867" cy="104.3139" r="1.2414"/>
					<circle cx="42.3322" cy="103.2695" r="1.2414"/>
					<circle cx="37.4779" cy="102.2252" r="1.2414"/>
					<circle cx="32.6234" cy="101.1808" r="1.2414"/>
					<circle cx="27.7689" cy="100.1365" r="1.2414"/>
					<circle cx="22.9145" cy="99.0921" r="1.2414"/>
					<circle cx="18.06" cy="98.0477" r="1.2414"/>
					<circle cx="13.2056" cy="97.0034" r="1.2414"/>
					<circle cx="8.3511" cy="95.959" r="1.2414"/>
					<circle cx="3.4967" cy="94.9146" r="1.2414"/>
				</g>
				<g>
					<circle cx="73.103" cy="113.6987" r="1.2414"/>
					<circle cx="68.2485" cy="112.6544" r="1.2414"/>
					<circle cx="63.394" cy="111.61" r="1.2414"/>
					<circle cx="58.5396" cy="110.5656" r="1.2414"/>
					<circle cx="53.6851" cy="109.5213" r="1.2414"/>
					<circle cx="48.8306" cy="108.4769" r="1.2414"/>
					<circle cx="43.9763" cy="107.4325" r="1.2414"/>
					<circle cx="39.1218" cy="106.3882" r="1.2414"/>
					<circle cx="34.2673" cy="105.3438" r="1.2414"/>
					<circle cx="29.4129" cy="104.2995" r="1.2414"/>
					<circle cx="24.5584" cy="103.2551" r="1.2414"/>
					<circle cx="19.7039" cy="102.2107" r="1.2414"/>
					<circle cx="14.8496" cy="101.1664" r="1.2414"/>
					<circle cx="9.9951" cy="100.122" r="1.2414"/>
					<circle cx="5.1407" cy="99.0777" r="1.2414"/>
					<circle cx="0.2862" cy="98.0333" r="1.2414"/>
				</g>
			</g>
		</g>
	</g>
	<path d="M40.1039,102.6325c0.0585-0.0826,0.0995-0.1927,0.1523-0.2842L0.8482,74.5001c-0.1534,0.0255-0.2994,0.0443-0.4542,0.0709
		c2.2987,13.374,6.8347,20.9331,17.8002,28.6821C24.6723,107.831,37.5112,106.3014,40.1039,102.6325z"/>
</g>
<g>
	<path fill="#FFFFFF" d="M68.4572,51.6576c1.0999-6.2113-5.5382-18.0289-3.1587-26.7298
		C69.7459,8.6653,76.2166,6.3687,82.379,0.7506c2.4457,7.9722,6.8472,13.2422,2.3998,29.5045
		C82.3993,38.9561,70.6712,45.7509,68.4572,51.6576z"/>
	<path fill="#FFFFFF" d="M68.5784,53.1853c6.2182-1.0603,15.1032-11.2963,24.0967-11.992
		c16.8093-1.3003,21.1545,4.0162,28.5223,7.9216c-6.6795,4.9921-10.1554,10.9136-26.9648,12.2139
		C85.2392,62.0245,74.8857,53.2767,68.5784,53.1853z"/>
	<path fill="#FFFFFF" d="M67.9746,53.4528c3.133,5.4749,15.7993,10.3002,19.5439,18.5067
		c6.9988,15.3382,3.4998,21.2461,2.3647,29.5074c-6.9839-4.5567-13.7393-5.7855-20.738-21.1237
		C65.4006,72.1366,70.0568,59.4072,67.9746,53.4528z"/>
	<path fill="#FFFFFF" d="M67.0815,52.776c-4.8133-4.0771-7.2527-17.4101-14.6406-22.5857
		c-13.8083-9.6735-20.2542-7.3082-28.5842-7.6956c3.2095,7.6965,3.1883,14.5628,16.9965,24.2362
		C48.2412,51.9065,61.6055,49.6448,67.0815,52.776z"/>
	<path fill="#FFFFFF" d="M67.4652,53.3135c-5.4831,3.1186-18.8422,0.8266-26.2419,5.9854
		c-13.8303,9.642-13.8247,16.5082-17.0517,24.1974c8.3308-0.3685,14.7714,2.0115,28.6016-7.6305
		C60.1729,70.707,62.6427,57.3796,67.4652,53.3135z"/>
</g>
<g>
	<path fill="#FFFFFF" d="M61.1673,114.3741c3.7539-2.6244,6.4132-12.1002,12.1023-15.3458
		c10.6331-6.0662,15.1346-3.9231,21.1831-3.6437c-2.8375,5.3489-3.2834,10.3146-13.9165,16.3808
		C74.8471,115.0111,65.3368,112.4782,61.1673,114.3741z"/>
	<path fill="#FFFFFF" d="M60.4452,115.2208c3.737,2.6483,13.5544,1.9546,18.5292,6.215
		c9.2981,7.9629,8.7994,12.9235,10.5771,18.7116c-5.9926-0.8664-10.8176,0.3893-20.1157-7.5736
		C64.4611,128.3133,63.6367,118.5061,60.4452,115.2208z"/>
	<path fill="#FFFFFF" d="M59.9978,115.048c-1.2024,4.4196,2.8234,13.4004,0.5325,19.5365
		c-4.2818,11.4686-9.1116,12.7054-13.936,16.3643c-1.2462-5.9253-4.0838-10.0247,0.198-21.4933
		C49.0833,123.3194,58.0097,119.1743,59.9978,115.048z"/>
	<path fill="#FFFFFF" d="M59.8868,114.242c-0.378-4.5647,5.2152-12.6627,4.0793-19.1133
		c-2.123-12.0564-6.647-14.1515-10.7249-18.6273c-2.3038,5.5995-5.8401,9.114-3.7171,21.1704
		C50.66,104.1223,58.6828,109.8228,59.8868,114.242z"/>
	<path fill="#FFFFFF" d="M59.8078,114.715c-4.4165-1.214-10.0986-9.2499-16.5466-10.4004
		c-12.0515-2.1504-15.574,1.3778-21.1788,3.6689c4.4665,4.0881,6.5514,8.6169,18.6028,10.7673
		C47.1333,119.9013,55.2441,114.3266,59.8078,114.715z"/>
</g>
</svg>
