<?xml version="1.0" encoding="utf-8"?>
<!-- Generator: Adobe Illustrator 17.1.0, SVG Export Plug-In . SVG Version: 6.00 Build 0)  -->
<!DOCTYPE svg PUBLIC "-//W3C//DTD SVG 1.1//EN" "http://www.w3.org/Graphics/SVG/1.1/DTD/svg11.dtd">
<svg version="1.1" id="レイヤー_1" xmlns="http://www.w3.org/2000/svg" xmlns:xlink="http://www.w3.org/1999/xlink" x="0px"
	 y="0px" viewBox="0 0 35 215" enable-background="new 0 0 35 215" xml:space="preserve">
<g>
	<path fill="#FFFFFF" d="M25.4543,172c0.6276,0,1.0204,0.8728,1.0204,1.5004v4.0719c0,2.802,1.7675,5.8076,2.872,7.6295
		c0.4464,0.4309,0.8959,1.1002,1.2937,1.577C30.643,186.7802,30.6708,187,30.6734,187h-0.0033
		c2.4802,3,3.9755,6.7319,3.9755,10.9083C34.6457,207.3856,26.97,215,17.4928,215h0.0215c-9.4772,0-17.16-7.6144-17.16-17.0917
		c0-4.1764,1.4953-7.9083,3.9755-10.9083H4.3266c0.0026,0,0.005-0.2198,0.0076-0.2214c0.3978-0.4768,0.8474-1.0381,1.2938-1.469
		c1.1045-1.8219,2.8468-4.9354,2.8468-7.7374v-4.0719C8.4747,172.8728,8.9325,172,9.56,172H25.4543z"/>
	<polygon points="25.44,161 22.173,160 20.4483,157 18.4747,157 18.4747,0 17.4747,0 17.4747,157 14.239,157 12.5142,160 
		22.031,160 17.5,161 9.5313,161 17.4857,163 9.5313,163 17.4857,166 9.5313,166 17.4857,168 9.5313,168 14.8579,172 25.4747,172 
		25.4747,168 25.4747,166 25.4747,163 25.4747,161 	"/>
</g>
</svg>
