<?xml version="1.0" encoding="utf-8"?>
<!-- Generator: Adobe Illustrator 17.1.0, SVG Export Plug-In . SVG Version: 6.00 Build 0)  -->
<!DOCTYPE svg PUBLIC "-//W3C//DTD SVG 1.1//EN" "http://www.w3.org/Graphics/SVG/1.1/DTD/svg11.dtd">
<svg version="1.1" id="レイヤー_1" xmlns="http://www.w3.org/2000/svg" xmlns:xlink="http://www.w3.org/1999/xlink" x="0px"
	 y="0px" viewBox="0 0 100 100" enable-background="new 0 0 100 100" xml:space="preserve">
<g>
	<circle cx="50" cy="50" r="50"/>
	<g>
		<path fill="#FFFFFF" d="M35.6716,70.6342v1.4395H33.657v7.2197h-1.811v-7.2197h-2.0151v-1.4395H35.6716z"/>
		<path fill="#FFFFFF" d="M41.0608,74.1v-3.4658h1.8105v8.6592h-1.8105v-3.8623h-2.0752v3.8623h-1.811v-8.6592h1.811V74.1H41.0608z"
			/>
		<path fill="#FFFFFF" d="M46.8225,79.2934H45.011v-8.6592h3.3467c1.2354,0,2.0264,0.792,2.0264,2.2666
			c0,1.1035-0.4316,1.9307-1.6074,2.123v0.0234c0.3965,0.0488,1.5713,0.1445,1.5713,1.7031c0,0.5518,0.0361,2.1836,0.2041,2.543
			h-1.7754c-0.2393-0.5273-0.1914-1.1152-0.1914-1.6787c0-1.0322,0.0957-1.9072-1.2949-1.9072h-0.4678V79.2934z M46.8225,74.3764
			h0.8027c0.7197,0,0.9238-0.7197,0.9238-1.2715c0-0.8281-0.3477-1.1396-0.9238-1.1396h-0.8027V74.3764z"/>
		<path fill="#FFFFFF" d="M52.2346,74.9633c0-2.29,0-4.4727,2.9863-4.4727s2.9863,2.1826,2.9863,4.4727
			c0,2.2676,0,4.4736-2.9863,4.4736S52.2346,77.2309,52.2346,74.9633z M56.3723,74.9633c0-2.2188-0.1318-3.1777-1.1514-3.1777
			s-1.1514,0.959-1.1514,3.1777s0.1318,3.1787,1.1514,3.1787S56.3723,77.182,56.3723,74.9633z"/>
		<path fill="#FFFFFF" d="M59.4827,70.6342h1.8594l1.127,6.0811h0.0244l1.3672-6.0811h2.1348l1.2959,6.0811h0.0234l1.0791-6.0811
			h1.7754l-1.9189,8.6592h-2.0029l-1.3555-6.332h-0.0234l-1.499,6.332h-1.9678L59.4827,70.6342z"/>
	</g>
	<path fill="#FFFFFF" d="M58.625,18.6212h-17.25c-1.8446,0-2.875,1.0304-2.875,2.875v34.5c0,1.8446,1.0304,2.875,2.875,2.875h17.25
		c1.8446,0,2.875-1.0304,2.875-2.875v-34.5C61.5,19.6516,60.4696,18.6212,58.625,18.6212z M47.9898,20.8251h4.0204
		c0.3706,0,0.6739,0.3004,0.6739,0.671c0,0.3706-0.3033,0.671-0.6739,0.671h-4.0204c-0.3706,0-0.6739-0.3004-0.6739-0.671
		C47.3159,21.1256,47.6192,20.8251,47.9898,20.8251z M50,58.0064c-1.1118,0-2.0131-0.8984-2.0131-2.0102S48.8882,53.986,50,53.986
		c1.1146,0,2.0131,0.8984,2.0131,2.0102S51.1146,58.0064,50,58.0064z M58.625,53.1212h-17.25v-28.75h17.25V53.1212z"/>
</g>
</svg>
